<?xml version="1.0" encoding="UTF-8" standalone="no"?>
<!-- Created with Inkscape (http://www.inkscape.org/) -->

<svg
   xmlns:dc="http://purl.org/dc/elements/1.1/"
   xmlns:cc="http://creativecommons.org/ns#"
   xmlns:rdf="http://www.w3.org/1999/02/22-rdf-syntax-ns#"
   xmlns:svg="http://www.w3.org/2000/svg"
   xmlns="http://www.w3.org/2000/svg"
   xmlns:sodipodi="http://sodipodi.sourceforge.net/DTD/sodipodi-0.dtd"
   xmlns:inkscape="http://www.inkscape.org/namespaces/inkscape"
   id="svg2"
   version="1.1"
   inkscape:version="0.91 r13725"
   xml:space="preserve"
   width="1500"
   height="1000"
   viewBox="0 0 1500 1000"
   sodipodi:docname="rustacean-flat-happy.svg"><metadata
     id="metadata8"><rdf:RDF><cc:Work
         rdf:about=""><dc:format>image/svg+xml</dc:format><dc:type
           rdf:resource="http://purl.org/dc/dcmitype/StillImage" /><dc:title></dc:title></cc:Work></rdf:RDF></metadata><defs
     id="defs6"><clipPath
       clipPathUnits="userSpaceOnUse"
       id="clipPath16"><path
         d="M 0,800 1200,800 1200,0 0,0 0,800 Z"
         id="path18"
         inkscape:connector-curvature="0" /></clipPath></defs><sodipodi:namedview
     pagecolor="#ffffff"
     bordercolor="#666666"
     borderopacity="1"
     objecttolerance="10"
     gridtolerance="10"
     guidetolerance="10"
     inkscape:pageopacity="0"
     inkscape:pageshadow="2"
     inkscape:window-width="640"
     inkscape:window-height="480"
     id="namedview4"
     showgrid="false"
     inkscape:zoom="0.21066667"
     inkscape:cx="750"
     inkscape:cy="500"
     inkscape:window-x="0"
     inkscape:window-y="0"
     inkscape:window-maximized="0"
     inkscape:current-layer="g10" /><g
     id="g10"
     inkscape:groupmode="layer"
     inkscape:label="rustacean-flat-happy"
     transform="matrix(1.25,0,0,-1.25,0,1000)"><g
       id="g12"><g
         id="g14"
         clip-path="url(#clipPath16)"><g
           id="g20"
           transform="translate(324.2671,154.4531)"><path
             d="m 0,0 c 0,0 26.627,-18.495 -20.136,-56.69 0,0 327.522,27.961 655.045,-0.767 0,0 -52.489,34.198 -37.005,56.671 0,0 -285.708,-18.084 -597.904,0.786"
             style="fill:#000000;fill-opacity:1;fill-rule:nonzero;stroke:none"
             id="path22"
             inkscape:connector-curvature="0" /></g><g
           id="g24"
           transform="translate(1009.3994,300.8408)"><path
             d="m 0,0 -12.072,25.006 c 0.063,0.947 0.111,1.898 0.111,2.853 0,28.346 -29.478,54.471 -79.069,75.389 l 0,-17.394 c -4.836,1.92 -9.871,3.788 -15.116,5.594 l 0,8.108 c -70.875,25.56 -176.384,41.778 -294.242,41.778 -102.973,0 -196.529,-12.38 -265.791,-32.554 l 0,-28.246 -0.002,0 0,34.188 c -70.96,-22.55 -114.954,-53.877 -114.954,-88.515 0,-5.46 1.101,-10.838 3.217,-16.113 l -7.228,-12.867 c 0,0 -5.792,-7.512 4.406,-23.362 8.994,-13.977 54.048,-68.685 77.827,-97.335 10.214,-14.687 17.141,-23.734 17.746,-22.859 0.955,1.386 -6.351,28.961 -26.635,60.423 -9.466,16.895 -20.768,39.283 -27.554,55.819 18.942,-11.99 130.23,-68.029 357.232,-67.801 231.994,0.232 335.115,72.851 346.433,82.737 -3.955,-15.889 -17.468,-48.033 -28.245,-70.638 -17.706,-32.331 -24.12,-60.478 -23.296,-61.87 0.524,-0.878 6.565,8.441 15.476,23.543 20.731,29.543 60.017,85.939 67.867,100.304 C 5.007,-7.526 0,0 0,0"
             style="fill:#a52b00;fill-opacity:1;fill-rule:nonzero;stroke:none"
             id="path26"
             inkscape:connector-curvature="0" /></g><g
           id="g28"
           transform="translate(1079.4854,300.9805)"><path
             d="m 0,0 -79.343,58.446 c -0.745,2.6 -1.49,5.2 -2.26,7.781 l 26.062,37.754 c 2.66,3.84 3.196,8.832 1.469,13.211 -1.731,4.358 -5.515,7.482 -9.991,8.247 l -44.065,7.479 c -1.709,3.485 -3.498,6.916 -5.294,10.319 l 18.515,42.388 c 1.903,4.317 1.505,9.335 -1.022,13.254 -2.517,3.937 -6.786,6.237 -11.338,6.059 l -44.724,-1.626 c -2.315,3.016 -4.667,6.003 -7.067,8.937 l 10.278,45.432 c 1.042,4.612 -0.274,9.443 -3.487,12.794 -3.195,3.339 -7.838,4.722 -12.253,3.639 l -43.562,-10.709 c -2.82,2.493 -5.688,4.953 -8.588,7.365 l 1.567,46.641 c 0.168,4.721 -2.033,9.208 -5.812,11.829 -3.777,2.635 -8.57,3.032 -12.701,1.074 l -40.638,-19.321 c -3.273,1.878 -6.565,3.737 -9.892,5.537 l -7.181,45.961 c -0.729,4.655 -3.724,8.612 -7.919,10.418 -4.185,1.817 -8.976,1.228 -12.648,-1.536 l -36.232,-27.185 c -3.569,1.185 -7.153,2.32 -10.779,3.407 l -15.617,43.585 c -1.588,4.443 -5.25,7.706 -9.716,8.624 -4.45,0.909 -9.028,-0.632 -12.114,-4.08 l -30.499,-34.12 c -3.685,0.424 -7.377,0.811 -11.076,1.132 l -23.549,39.676 c -2.384,4.018 -6.597,6.464 -11.139,6.464 -4.529,0 -8.75,-2.446 -11.118,-6.464 l -23.555,-39.676 c -3.701,-0.321 -7.408,-0.708 -11.088,-1.132 l -30.499,34.12 c -3.09,3.448 -7.684,4.989 -12.122,4.08 -4.46,-0.93 -8.128,-4.181 -9.707,-8.624 l -15.629,-43.585 c -3.621,-1.087 -7.205,-2.23 -10.78,-3.407 l -36.22,27.185 c -3.683,2.774 -8.478,3.361 -12.668,1.536 -4.181,-1.806 -7.188,-5.763 -7.913,-10.418 L -661.1,316.53 c -3.322,-1.8 -6.614,-3.649 -9.895,-5.537 l -40.634,19.321 c -4.127,1.966 -8.945,1.561 -12.704,-1.074 -3.773,-2.621 -5.98,-7.108 -5.81,-11.829 l 1.562,-46.641 c -2.894,-2.412 -5.756,-4.872 -8.591,-7.365 l -43.554,10.709 c -4.423,1.074 -9.062,-0.3 -12.265,-3.639 -3.221,-3.351 -4.526,-8.182 -3.491,-12.794 l 10.257,-45.432 c -2.378,-2.945 -4.733,-5.921 -7.042,-8.937 l -44.724,1.626 c -4.513,0.134 -8.822,-2.122 -11.343,-6.059 -2.527,-3.919 -2.91,-8.937 -1.029,-13.254 l 18.528,-42.388 c -1.799,-3.403 -3.586,-6.834 -5.309,-10.319 l -44.063,-7.479 c -4.479,-0.754 -8.252,-3.876 -9.994,-8.247 -1.728,-4.379 -1.167,-9.371 1.474,-13.211 l 26.066,-37.754 c -0.201,-0.666 -0.387,-1.339 -0.587,-2.008 l -73.696,-78.285 c 0,0 -11.296,-8.851 5.147,-29.654 14.5,-18.351 88.951,-91.095 128.271,-129.205 16.606,-19.348 27.984,-31.329 29.172,-30.293 1.876,1.645 -7.972,36.847 -40.682,78.149 -25.216,37.056 -57.941,94.049 -50.267,100.618 0,0 8.729,11.081 26.242,19.057 0.641,-0.512 -0.662,0.507 0,0 0,0 369.595,-170.491 712.429,-2.884 39.164,7.025 62.873,-13.954 62.873,-13.954 8.176,-4.741 -12.996,-63.345 -30.407,-102.138 -23.679,-44.05 -27.151,-78.422 -25.144,-79.614 1.268,-0.757 9.883,12.353 22.172,33.217 C -67.814,-128.514 -10.492,-47.965 0,-28.399 11.895,-6.217 0,0 0,0"
             style="fill:#f74c00;fill-opacity:1;fill-rule:nonzero;stroke:none"
             id="path30"
             inkscape:connector-curvature="0" /></g><g
           id="g32"
           transform="translate(917.8965,322.8555)"><path
             d="m 0,0 c 0,0 53.179,2.466 123.032,73.462 l 9.898,21.979 c 0,0 -108.417,107.848 60.118,182.291 0,0 -14.755,-24.112 -10.426,-117.272 0,0 50.816,17.649 65.714,99.94 0,0 74.12,-97.724 -80.502,-189.377 0,0 -72.54,-116.289 -174.805,-105.15 L 0,0 Z"
             style="fill:#f74c00;fill-opacity:1;fill-rule:nonzero;stroke:none"
             id="path34"
             inkscape:connector-curvature="0" /></g><g
           id="g36"
           transform="translate(676.9971,389.8311)"><path
             d="m 0,0 c 0,0 36.936,40.443 73.871,0 0,0 29.022,-53.927 0,-80.887 0,0 -47.487,-37.748 -73.871,0 0,0 -31.658,29.659 0,80.887"
             style="fill:#000000;fill-opacity:1;fill-rule:nonzero;stroke:none"
             id="path38"
             inkscape:connector-curvature="0" /></g><g
           id="g40"
           transform="translate(719.7607,374.8271)"><path
             d="m 0,0 c 0,-15.746 -9.282,-28.514 -20.732,-28.514 -11.448,0 -20.73,12.768 -20.73,28.514 0,15.75 9.282,28.518 20.73,28.518 C -9.282,28.518 0,15.75 0,0"
             style="fill:#ffffff;fill-opacity:1;fill-rule:nonzero;stroke:none"
             id="path42"
             inkscape:connector-curvature="0" /></g><g
           id="g44"
           transform="translate(512.1484,400.8735)"><path
             d="m 0,0 c 0,0 63.355,28.052 80.648,-34.562 0,0 18.114,-72.98 -52.03,-77.099 0,0 -89.444,17.228 -28.618,111.661"
             style="fill:#000000;fill-opacity:1;fill-rule:nonzero;stroke:none"
             id="path46"
             inkscape:connector-curvature="0" /></g><g
           id="g48"
           transform="translate(543.9678,373.7939)"><path
             d="m 0,0 c 0,-16.239 -9.572,-29.409 -21.381,-29.409 -11.804,0 -21.379,13.17 -21.379,29.409 0,16.244 9.575,29.411 21.379,29.411 C -9.572,29.411 0,16.244 0,0"
             style="fill:#ffffff;fill-opacity:1;fill-rule:nonzero;stroke:none"
             id="path50"
             inkscape:connector-curvature="0" /></g><g
           id="g52"
           transform="translate(593.3169,263.6973)"><path
             d="m 0,0 80.796,6.484 c 0,0 -2.738,-13.006 -13.279,-22.769 0,0 -27.79,-30.47 -59.673,2.533 0,0 -5.217,5.629 -7.844,13.752"
             style="fill:#000000;fill-opacity:1;fill-rule:nonzero;stroke:none"
             id="path54"
             inkscape:connector-curvature="0" /></g><g
           id="g56"
           transform="translate(269.7959,338.4814)"><path
             d="m 0,0 c -0.667,0 -1.321,-0.049 -1.973,-0.101 -26.234,5.971 -99.973,25.185 -119.464,56.363 0,0 99.227,112.872 -55.86,185.019 l 18.057,-124.878 c 0,0 -47.809,31.949 -58.126,101.346 0,0 -116.423,-84.494 51.384,-165.474 0,0 15.22,-57.187 161.349,-102.815 l 0.107,0.435 c 1.471,-0.272 2.977,-0.435 4.526,-0.435 13.808,0 25.003,11.312 25.003,25.271 C 25.003,-11.313 13.808,0 0,0"
             style="fill:#f74c00;fill-opacity:1;fill-rule:nonzero;stroke:none"
             id="path58"
             inkscape:connector-curvature="0" /></g></g></g></g></svg>