<?xml version="1.0" encoding="UTF-8" standalone="no"?>
<!-- Created with Inkscape (http://www.inkscape.org/) -->

<svg
   xmlns:dc="http://purl.org/dc/elements/1.1/"
   xmlns:cc="http://creativecommons.org/ns#"
   xmlns:rdf="http://www.w3.org/1999/02/22-rdf-syntax-ns#"
   xmlns:svg="http://www.w3.org/2000/svg"
   xmlns="http://www.w3.org/2000/svg"
   xmlns:sodipodi="http://sodipodi.sourceforge.net/DTD/sodipodi-0.dtd"
   xmlns:inkscape="http://www.inkscape.org/namespaces/inkscape"
   id="svg2"
   version="1.1"
   inkscape:version="0.91 r13725"
   xml:space="preserve"
   width="1500"
   height="1000"
   viewBox="0 0 1500 1000"
   sodipodi:docname="rustacean-flat-3.svg"><metadata
     id="metadata8"><rdf:RDF><cc:Work
         rdf:about=""><dc:format>image/svg+xml</dc:format><dc:type
           rdf:resource="http://purl.org/dc/dcmitype/StillImage" /><dc:title></dc:title></cc:Work></rdf:RDF></metadata><defs
     id="defs6"><clipPath
       clipPathUnits="userSpaceOnUse"
       id="clipPath16"><path
         d="M 0,800 1200,800 1200,0 0,0 0,800 Z"
         id="path18"
         inkscape:connector-curvature="0" /></clipPath></defs><sodipodi:namedview
     pagecolor="#ffffff"
     bordercolor="#666666"
     borderopacity="1"
     objecttolerance="10"
     gridtolerance="10"
     guidetolerance="10"
     inkscape:pageopacity="0"
     inkscape:pageshadow="2"
     inkscape:window-width="640"
     inkscape:window-height="480"
     id="namedview4"
     showgrid="false"
     inkscape:zoom="0.198"
     inkscape:cx="750"
     inkscape:cy="500"
     inkscape:window-x="0"
     inkscape:window-y="0"
     inkscape:window-maximized="0"
     inkscape:current-layer="g10" /><g
     id="g10"
     inkscape:groupmode="layer"
     inkscape:label="rustacean-flat-3"
     transform="matrix(1.25,0,0,-1.25,0,1000)"><g
       id="g12"><g
         id="g14"
         clip-path="url(#clipPath16)"><g
           id="g20"
           transform="translate(597.3442,442.5391)"><path
             d="m 0,0 c -121.238,0 -231.39,-14.576 -312.939,-38.329 l 0,-202.901 c 81.549,-23.754 191.701,-38.329 312.939,-38.329 138.76,0 262.987,19.092 346.431,49.186 l 0,181.184 C 262.987,-19.094 138.76,0 0,0"
             style="fill:#000000;fill-opacity:1;fill-rule:nonzero;stroke:none"
             id="path22"
             inkscape:connector-curvature="0" /></g><g
           id="g24"
           transform="translate(262.0952,105.3262)"><path
             d="m 0,0 c 0,0 31.347,-21.777 -23.707,-66.748 0,0 385.614,32.922 771.234,-0.902 0,0 -61.798,40.263 -43.569,66.724 0,0 -336.386,-21.293 -703.958,0.926"
             style="fill:#000000;fill-opacity:1;fill-rule:nonzero;stroke:none"
             id="path26"
             inkscape:connector-curvature="0" /></g><g
           id="g28"
           transform="translate(1068.751,277.6777)"><path
             d="m 0,0 -14.211,29.441 c 0.073,1.118 0.131,2.237 0.131,3.36 0,33.375 -34.706,64.135 -93.097,88.762 l 0,-177.526 c 27.245,11.492 49.348,24.317 65.156,38.125 -4.652,-18.707 -20.564,-56.553 -33.25,-83.168 -20.85,-38.066 -28.4,-71.203 -27.432,-72.844 0.617,-1.033 7.73,9.94 18.219,27.721 24.41,34.781 70.664,101.182 79.909,118.096 C 5.897,-8.859 0,0 0,0"
             style="fill:#000000;fill-opacity:1;fill-rule:nonzero;stroke:none"
             id="path30"
             inkscape:connector-curvature="0" /></g><g
           id="g32"
           transform="translate(149.064,308.5332)"><path
             d="m 0,0 c 0,-6.428 1.293,-12.76 3.788,-18.969 l -8.511,-15.15 c 0,0 -6.818,-8.846 5.188,-27.508 10.59,-16.455 63.635,-80.867 91.632,-114.598 12.026,-17.293 20.179,-27.945 20.893,-26.916 1.124,1.633 -7.476,34.1 -31.359,71.141 -11.144,19.895 -24.454,46.252 -32.442,65.721 22.303,-14.116 51.483,-26.92 86.152,-37.94 l 0,208.435 C 51.797,77.668 0,40.783 0,0"
             style="fill:#000000;fill-opacity:1;fill-rule:nonzero;stroke:none"
             id="path34"
             inkscape:connector-curvature="0" /></g><g
           id="g36"
           transform="translate(1151.2715,277.8438)"><path
             d="m 0,0 -93.415,68.811 c -0.88,3.064 -1.756,6.127 -2.662,9.162 l 30.683,44.451 c 3.13,4.522 3.765,10.398 1.731,15.555 -2.037,5.13 -6.491,8.81 -11.763,9.71 l -51.884,8.805 c -2.008,4.102 -4.116,8.142 -6.23,12.15 l 21.797,49.903 c 2.243,5.087 1.769,10.995 -1.203,15.608 -2.961,4.636 -7.99,7.344 -13.349,7.133 l -52.656,-1.913 c -2.727,3.55 -5.496,7.068 -8.321,10.521 l 12.1,53.49 c 1.225,5.433 -0.322,11.118 -4.103,15.064 -3.762,3.932 -9.229,5.559 -14.426,4.283 l -51.289,-12.608 c -3.321,2.935 -6.698,5.833 -10.114,8.673 l 1.848,54.914 c 0.198,5.559 -2.393,10.842 -6.844,13.925 -4.446,3.104 -10.093,3.573 -14.956,1.266 l -47.847,-22.747 c -3.854,2.21 -7.728,4.4 -11.644,6.517 l -8.455,54.115 c -0.857,5.483 -4.385,10.139 -9.326,12.266 -4.923,2.137 -10.568,1.447 -14.891,-1.808 l -42.659,-32.007 c -4.2,1.395 -8.419,2.732 -12.692,4.011 l -18.386,51.316 c -1.87,5.229 -6.181,9.071 -11.438,10.151 -5.239,1.072 -10.63,-0.742 -14.263,-4.802 l -35.906,-40.171 c -4.343,0.5 -8.686,0.956 -13.043,1.331 l -27.724,46.713 c -2.81,4.732 -7.77,7.612 -13.116,7.612 -5.334,0 -10.304,-2.88 -13.09,-7.612 l -27.733,-46.713 c -4.358,-0.375 -8.722,-0.831 -13.056,-1.331 l -35.91,40.171 c -3.636,4.06 -9.047,5.874 -14.268,4.802 -5.255,-1.092 -9.573,-4.922 -11.433,-10.151 l -18.402,-51.316 c -4.26,-1.279 -8.481,-2.627 -12.691,-4.011 l -42.644,32.007 c -4.336,3.266 -9.98,3.955 -14.916,1.808 -4.919,-2.127 -8.461,-6.783 -9.313,-12.266 l -8.461,-54.115 c -3.914,-2.117 -7.789,-4.294 -11.653,-6.517 l -47.842,22.747 c -4.858,2.316 -10.529,1.838 -14.954,-1.266 -4.445,-3.083 -7.042,-8.366 -6.84,-13.925 l 1.835,-54.914 c -3.405,-2.84 -6.774,-5.738 -10.112,-8.673 l -51.279,12.608 c -5.21,1.265 -10.67,-0.351 -14.441,-4.283 -3.795,-3.946 -5.331,-9.631 -4.113,-15.064 l 12.079,-53.49 c -2.802,-3.467 -5.575,-6.971 -8.293,-10.521 l -52.655,1.913 c -5.314,0.157 -10.386,-2.497 -13.356,-7.133 -2.974,-4.613 -3.425,-10.521 -1.211,-15.608 l 21.814,-49.903 c -2.119,-4.008 -4.224,-8.048 -6.249,-12.15 l -51.882,-8.805 c -5.271,-0.888 -9.715,-4.566 -11.765,-9.71 -2.037,-5.157 -1.375,-11.033 1.735,-15.555 l 30.691,-44.451 c -0.237,-0.784 -0.456,-1.577 -0.691,-2.364 l -86.77,-92.17 c 0,0 -13.298,-10.423 6.062,-34.916 17.069,-21.605 104.727,-107.252 151.021,-152.123 19.554,-22.779 32.948,-36.886 34.349,-35.666 2.208,1.94 -9.387,43.385 -47.902,92.012 -29.685,43.629 -68.214,110.733 -59.179,118.467 0,0 10.277,13.045 30.897,22.435 0.753,-0.603 -0.781,0.598 0,0 0,0 435.152,-200.732 838.797,-3.396 46.108,8.273 74.023,-16.43 74.023,-16.43 9.628,-5.58 -15.301,-74.578 -35.798,-120.254 -27.881,-51.863 -31.97,-92.332 -29.604,-93.736 1.491,-0.889 11.634,14.545 26.104,39.109 C -79.843,-151.311 -12.354,-56.473 0,-33.439 14.006,-7.32 0,0 0,0"
             style="fill:#f74c00;fill-opacity:1;fill-rule:nonzero;stroke:none"
             id="path38"
             inkscape:connector-curvature="0" /></g><g
           id="g40"
           transform="translate(450.3276,149.041)"><path
             d="M 0,0 C -1.664,1.42 -2.536,2.262 -2.536,2.262 L 140.006,13.939 C 23.733,167.33 -69.418,45.137 -79.333,31.475 L -79.333,0 0,0 Z"
             style="fill:#000000;fill-opacity:1;fill-rule:nonzero;stroke:none"
             id="path42"
             inkscape:connector-curvature="0" /></g><g
           id="g44"
           transform="translate(747.1201,150.6934)"><path
             d="M 0,0 C 1.663,1.42 2.536,2.264 2.536,2.264 L -134.448,12.287 C -18.12,171.974 69.421,45.139 79.335,31.477 L 79.335,0 0,0 Z"
             style="fill:#000000;fill-opacity:1;fill-rule:nonzero;stroke:none"
             id="path46"
             inkscape:connector-curvature="0" /></g><g
           id="g48"
           transform="translate(966.0938,302.9805)"><path
             d="m 0,0 c 0,0 -15.576,-62.041 -112.453,-127.238 l -27.166,-6.367 c 0,0 -87.881,160.259 -212.383,-20.334 0,0 38.802,22.591 142.822,-4.92 0,0 -47.85,-73.239 -144.242,-70.989 0,0 92.373,-110.82 232.94,49.252 0,0 148.595,57.463 160.646,180.596 L 0,0 Z"
             style="fill:#f74c00;fill-opacity:1;fill-rule:nonzero;stroke:none"
             id="path50"
             inkscape:connector-curvature="0" /></g><g
           id="g52"
           transform="translate(677.3916,382.4531)"><path
             d="m 0,0 c 0,0 43.486,47.615 86.974,0 0,0 34.17,-63.492 0,-95.234 0,0 -55.912,-44.444 -86.974,0 0,0 -37.275,34.921 0,95.234"
             style="fill:#000000;fill-opacity:1;fill-rule:nonzero;stroke:none"
             id="path54"
             inkscape:connector-curvature="0" /></g><g
           id="g56"
           transform="translate(727.7383,364.7891)"><path
             d="m 0,0 c 0,-18.541 -10.93,-33.572 -24.408,-33.572 -13.477,0 -24.406,15.031 -24.406,33.572 0,18.541 10.929,33.574 24.406,33.574 C -10.93,33.574 0,18.541 0,0"
             style="fill:#ffffff;fill-opacity:1;fill-rule:nonzero;stroke:none"
             id="path58"
             inkscape:connector-curvature="0" /></g><g
           id="g60"
           transform="translate(483.2998,395.4551)"><path
             d="m 0,0 c 0,0 74.596,33.028 94.956,-40.691 0,0 21.327,-85.926 -61.259,-90.776 0,0 -105.31,20.283 -33.697,131.467"
             style="fill:#000000;fill-opacity:1;fill-rule:nonzero;stroke:none"
             id="path62"
             inkscape:connector-curvature="0" /></g><g
           id="g64"
           transform="translate(520.7656,363.5723)"><path
             d="m 0,0 c 0,-19.119 -11.27,-34.627 -25.173,-34.627 -13.898,0 -25.171,15.508 -25.171,34.627 0,19.124 11.273,34.627 25.171,34.627 C -11.27,34.627 0,19.124 0,0"
             style="fill:#ffffff;fill-opacity:1;fill-rule:nonzero;stroke:none"
             id="path66"
             inkscape:connector-curvature="0" /></g><g
           id="g68"
           transform="translate(441.397,137.4668)"><path
             d="M 0,0 C 91.833,11.574 144.904,12.652 144.904,12.652 22.037,174.736 -77.661,27.996 -77.661,27.996 c -24.982,8.932 -50.453,43.613 -69.477,75.59 l -76.237,22.58 C -135.502,-22.975 -70.08,-25.248 -70.08,-25.248 66.134,-199.838 130.663,-59.543 130.663,-59.543 54.195,-50.861 0,0 0,0"
             style="fill:#f74c00;fill-opacity:1;fill-rule:nonzero;stroke:none"
             id="path70"
             inkscape:connector-curvature="0" /></g></g></g></g></svg>