<?xml version="1.0" encoding="UTF-8" standalone="no"?>
<!-- Created with Inkscape (http://www.inkscape.org/) -->

<svg
   xmlns:dc="http://purl.org/dc/elements/1.1/"
   xmlns:cc="http://creativecommons.org/ns#"
   xmlns:rdf="http://www.w3.org/1999/02/22-rdf-syntax-ns#"
   xmlns:svg="http://www.w3.org/2000/svg"
   xmlns="http://www.w3.org/2000/svg"
   xmlns:sodipodi="http://sodipodi.sourceforge.net/DTD/sodipodi-0.dtd"
   xmlns:inkscape="http://www.inkscape.org/namespaces/inkscape"
   id="svg2"
   version="1.1"
   inkscape:version="0.91 r13725"
   xml:space="preserve"
   width="1500"
   height="1000"
   viewBox="0 0 1500 1000"
   sodipodi:docname="rustacean-orig-happy.svg"><metadata
     id="metadata8"><rdf:RDF><cc:Work
         rdf:about=""><dc:format>image/svg+xml</dc:format><dc:type
           rdf:resource="http://purl.org/dc/dcmitype/StillImage" /><dc:title></dc:title></cc:Work></rdf:RDF></metadata><defs
     id="defs6"><clipPath
       clipPathUnits="userSpaceOnUse"
       id="clipPath16"><path
         d="M 0,800 1200,800 1200,0 0,0 0,800 Z"
         id="path18"
         inkscape:connector-curvature="0" /></clipPath><clipPath
       clipPathUnits="userSpaceOnUse"
       id="clipPath32"><path
         d="m 595.752,703.392 -23.554,-39.675 c -3.702,-0.322 -7.409,-0.709 -11.089,-1.133 l 0,0 -30.499,34.12 c -3.089,3.448 -7.684,4.989 -12.121,4.08 l 0,0 c -4.46,-0.93 -8.129,-4.18 -9.708,-8.624 l 0,0 -15.63,-43.585 c -3.619,-1.086 -7.203,-2.229 -10.779,-3.406 l 0,0 -36.22,27.184 c -3.682,2.775 -8.478,3.362 -12.668,1.536 l 0,0 c -4.18,-1.806 -7.187,-5.762 -7.912,-10.417 l 0,0 -7.186,-45.961 c -3.323,-1.8 -6.614,-3.65 -9.895,-5.538 l 0,0 -40.635,19.321 c -4.126,1.967 -8.945,1.562 -12.703,-1.074 l 0,0 c -3.773,-2.62 -5.981,-7.107 -5.81,-11.828 l 0,0 1.562,-46.642 c -2.895,-2.411 -5.757,-4.872 -8.592,-7.365 l 0,0 -43.554,10.71 c -4.423,1.073 -9.062,-0.301 -12.265,-3.639 l 0,0 c -3.221,-3.352 -4.526,-8.182 -3.491,-12.795 l 0,0 10.257,-45.432 c -2.377,-2.945 -4.733,-5.921 -7.041,-8.936 l 0,0 -44.725,1.625 c -4.513,0.134 -8.821,-2.121 -11.343,-6.058 l 0,0 c -2.527,-3.92 -2.909,-8.937 -1.028,-13.255 l 0,0 18.527,-42.388 c -1.799,-3.402 -3.586,-6.833 -5.308,-10.318 l 0,0 -44.064,-7.479 c -4.478,-0.754 -8.252,-3.877 -9.993,-8.248 l 0,0 c -1.728,-4.379 -1.167,-9.37 1.474,-13.211 l 0,0 26.065,-37.754 c -0.201,-0.666 -0.386,-1.339 -0.586,-2.008 l 0,0 -73.697,-78.285 c 0,0 -11.296,-8.851 5.147,-29.654 l 0,0 c 14.5,-18.35 88.952,-91.095 128.272,-129.204 l 0,0 c 16.606,-19.349 27.984,-31.329 29.172,-30.294 l 0,0 c 1.875,1.645 -7.973,36.847 -40.683,78.149 l 0,0 c -25.215,37.057 -57.94,94.05 -50.266,100.618 l 0,0 c 0,0 8.725,11.078 26.234,19.054 l 0,0 c 0,10e-4 -0.001,0.002 -0.002,0.002 l 0,0 c -0.163,0.127 -0.321,0.254 0.01,0.002 l 0,0 c 0,0 369.594,-170.491 712.429,-2.885 l 0,0 c 39.164,7.026 62.873,-13.954 62.873,-13.954 l 0,0 c 8.175,-4.74 -12.996,-63.345 -30.408,-102.137 l 0,0 C 960.64,132.56 957.168,98.188 959.176,96.996 l 0,0 c 1.267,-0.756 9.883,12.354 22.171,33.218 l 0,0 c 30.324,42.253 87.646,122.801 98.138,142.367 l 0,0 c 11.895,22.182 0,28.4 0,28.4 l 0,0 -79.342,58.446 c -0.745,2.6 -1.49,5.2 -2.26,7.78 l 0,0 26.061,37.754 c 2.661,3.841 3.196,8.832 1.469,13.211 l 0,0 c -1.731,4.358 -5.515,7.483 -9.99,8.248 l 0,0 -44.066,7.479 c -1.709,3.485 -3.498,6.916 -5.293,10.318 l 0,0 18.514,42.388 c 1.903,4.318 1.505,9.335 -1.021,13.255 l 0,0 c -2.518,3.937 -6.786,6.237 -11.338,6.058 l 0,0 -44.725,-1.625 c -2.315,3.015 -4.667,6.003 -7.067,8.936 l 0,0 10.278,45.432 c 1.042,4.613 -0.273,9.443 -3.486,12.795 l 0,0 c -3.195,3.338 -7.839,4.721 -12.253,3.639 l 0,0 -43.563,-10.71 c -2.82,2.493 -5.688,4.954 -8.587,7.365 l 0,0 1.567,46.642 c 0.168,4.721 -2.034,9.208 -5.813,11.828 l 0,0 c -3.777,2.636 -8.57,3.033 -12.7,1.074 l 0,0 -40.638,-19.321 c -3.274,1.878 -6.566,3.738 -9.892,5.538 l 0,0 -7.182,45.961 c -0.728,4.655 -3.723,8.611 -7.919,10.417 l 0,0 c -4.184,1.817 -8.975,1.229 -12.647,-1.536 l 0,0 -36.232,-27.184 c -3.57,1.185 -7.154,2.32 -10.779,3.406 l 0,0 -15.618,43.585 c -1.588,4.444 -5.25,7.706 -9.716,8.624 l 0,0 c -4.45,0.909 -9.028,-0.632 -12.113,-4.08 l 0,0 -30.499,-34.12 c -3.686,0.424 -7.377,0.811 -11.076,1.133 l 0,0 -23.549,39.675 c -2.385,4.019 -6.598,6.464 -11.14,6.464 l 0,0 c -4.528,0 -8.75,-2.445 -11.118,-6.464 M 239.417,295.583 c 0.163,-0.127 0.327,-0.252 0.008,0.004 l 0,0 c -0.002,-10e-4 -0.005,-0.003 -0.008,-0.004"
         id="path34"
         inkscape:connector-curvature="0" /></clipPath><linearGradient
       x1="0"
       y1="0"
       x2="1"
       y2="0"
       gradientUnits="userSpaceOnUse"
       gradientTransform="matrix(-55.895172,638.88379,638.88379,55.895187,630.11719,68.164062)"
       spreadMethod="pad"
       id="linearGradient40"><stop
         style="stop-opacity:1;stop-color:#f74c00"
         offset="0"
         id="stop42" /><stop
         style="stop-opacity:1;stop-color:#f74c00"
         offset="0.331284"
         id="stop44" /><stop
         style="stop-opacity:1;stop-color:#f74c00"
         offset="0.42403707"
         id="stop46" /><stop
         style="stop-opacity:1;stop-color:#f49600"
         offset="1"
         id="stop48" /></linearGradient><clipPath
       clipPathUnits="userSpaceOnUse"
       id="clipPath56"><path
         d="m 1050.826,418.297 -9.898,-21.979 C 971.075,325.321 917.896,322.855 917.896,322.855 l 0,0 -6.97,-34.127 C 1013.19,277.59 1085.73,393.879 1085.73,393.879 l 0,0 c 154.622,91.652 80.503,189.377 80.503,189.377 l 0,0 c -14.899,-82.292 -65.715,-99.941 -65.715,-99.941 l 0,0 c -4.329,93.16 10.427,117.273 10.427,117.273 l 0,0 C 942.409,526.144 1050.826,418.297 1050.826,418.297"
         id="path58"
         inkscape:connector-curvature="0" /></clipPath><linearGradient
       x1="0"
       y1="0"
       x2="1"
       y2="0"
       gradientUnits="userSpaceOnUse"
       gradientTransform="matrix(-1.53e-5,-312.61182,-312.61182,1.53e-5,1047.458,600.58789)"
       spreadMethod="pad"
       id="linearGradient64"><stop
         style="stop-opacity:1;stop-color:#cc3a00"
         offset="0"
         id="stop66" /><stop
         style="stop-opacity:1;stop-color:#cc3a00"
         offset="0.147232"
         id="stop68" /><stop
         style="stop-opacity:1;stop-color:#f74c00"
         offset="0.41840305"
         id="stop70" /><stop
         style="stop-opacity:1;stop-color:#f74c00"
         offset="0.742325"
         id="stop72" /><stop
         style="stop-opacity:1;stop-color:#f74c00"
         offset="1"
         id="stop74" /></linearGradient><clipPath
       clipPathUnits="userSpaceOnUse"
       id="clipPath82"><path
         d="M 0,800 1200,800 1200,0 0,0 0,800 Z"
         id="path84"
         inkscape:connector-curvature="0" /></clipPath><linearGradient
       x1="0"
       y1="0"
       x2="1"
       y2="0"
       gradientUnits="userSpaceOnUse"
       gradientTransform="matrix(-1.53e-5,-291.82178,-291.82178,1.53e-5,153.95361,579.7627)"
       spreadMethod="pad"
       id="linearGradient118"><stop
         style="stop-opacity:1;stop-color:#cc3a00"
         offset="0"
         id="stop120" /><stop
         style="stop-opacity:1;stop-color:#cc3a00"
         offset="0.147232"
         id="stop122" /><stop
         style="stop-opacity:1;stop-color:#f74c00"
         offset="0.41840305"
         id="stop124" /><stop
         style="stop-opacity:1;stop-color:#f74c00"
         offset="0.742325"
         id="stop126" /><stop
         style="stop-opacity:1;stop-color:#f74c00"
         offset="1"
         id="stop128" /></linearGradient></defs><sodipodi:namedview
     pagecolor="#ffffff"
     bordercolor="#666666"
     borderopacity="1"
     objecttolerance="10"
     gridtolerance="10"
     guidetolerance="10"
     inkscape:pageopacity="0"
     inkscape:pageshadow="2"
     inkscape:window-width="640"
     inkscape:window-height="480"
     id="namedview4"
     showgrid="false"
     inkscape:zoom="0.212"
     inkscape:cx="750"
     inkscape:cy="500"
     inkscape:window-x="0"
     inkscape:window-y="0"
     inkscape:window-maximized="0"
     inkscape:current-layer="g10" /><g
     id="g10"
     inkscape:groupmode="layer"
     inkscape:label="rustacean-orig-happy"
     transform="matrix(1.25,0,0,-1.25,0,1000)"><g
       id="g12"><g
         id="g14"
         clip-path="url(#clipPath16)"><g
           id="g20"
           transform="translate(324.2671,154.4531)"><path
             d="m 0,0 c 0,0 26.627,-18.495 -20.136,-56.69 0,0 327.522,27.961 655.045,-0.767 0,0 -52.489,34.198 -37.005,56.671 0,0 -285.708,-18.084 -597.904,0.786"
             style="fill:#000000;fill-opacity:1;fill-rule:nonzero;stroke:none"
             id="path22"
             inkscape:connector-curvature="0" /></g><g
           id="g24"
           transform="translate(1009.3994,300.8408)"><path
             d="m 0,0 -12.072,25.006 c 0.063,0.947 0.111,1.898 0.111,2.853 0,28.346 -29.478,54.471 -79.069,75.389 l 0,-17.394 c -4.836,1.92 -9.871,3.788 -15.116,5.594 l 0,8.108 c -70.875,25.56 -176.384,41.778 -294.242,41.778 -102.973,0 -196.529,-12.38 -265.791,-32.554 l 0,-28.246 -0.002,0 0,34.188 c -70.96,-22.55 -114.954,-53.877 -114.954,-88.515 0,-5.46 1.101,-10.838 3.217,-16.113 l -7.228,-12.867 c 0,0 -5.792,-7.512 4.406,-23.362 8.994,-13.977 54.048,-68.685 77.827,-97.335 10.214,-14.687 17.141,-23.734 17.746,-22.859 0.955,1.386 -6.351,28.961 -26.635,60.423 -9.466,16.895 -20.768,39.283 -27.554,55.819 18.942,-11.99 130.23,-68.029 357.232,-67.801 231.994,0.232 335.115,72.851 346.433,82.737 -3.955,-15.889 -17.468,-48.033 -28.245,-70.638 -17.706,-32.331 -24.12,-60.478 -23.296,-61.87 0.524,-0.878 6.565,8.441 15.476,23.543 20.731,29.543 60.017,85.939 67.867,100.304 C 5.007,-7.526 0,0 0,0"
             style="fill:#a52b00;fill-opacity:1;fill-rule:nonzero;stroke:none"
             id="path26"
             inkscape:connector-curvature="0" /></g></g></g><g
       id="g28"><g
         id="g30"
         clip-path="url(#clipPath32)"><g
           id="g36"><g
             id="g38"><path
               d="m 595.752,703.392 -23.554,-39.675 c -3.702,-0.322 -7.409,-0.709 -11.089,-1.133 l 0,0 -30.499,34.12 c -3.089,3.448 -7.684,4.989 -12.121,4.08 l 0,0 c -4.46,-0.93 -8.129,-4.18 -9.708,-8.624 l 0,0 -15.63,-43.585 c -3.619,-1.086 -7.203,-2.229 -10.779,-3.406 l 0,0 -36.22,27.184 c -3.682,2.775 -8.478,3.362 -12.668,1.536 l 0,0 c -4.18,-1.806 -7.187,-5.762 -7.912,-10.417 l 0,0 -7.186,-45.961 c -3.323,-1.8 -6.614,-3.65 -9.895,-5.538 l 0,0 -40.635,19.321 c -4.126,1.967 -8.945,1.562 -12.703,-1.074 l 0,0 c -3.773,-2.62 -5.981,-7.107 -5.81,-11.828 l 0,0 1.562,-46.642 c -2.895,-2.411 -5.757,-4.872 -8.592,-7.365 l 0,0 -43.554,10.71 c -4.423,1.073 -9.062,-0.301 -12.265,-3.639 l 0,0 c -3.221,-3.352 -4.526,-8.182 -3.491,-12.795 l 0,0 10.257,-45.432 c -2.377,-2.945 -4.733,-5.921 -7.041,-8.936 l 0,0 -44.725,1.625 c -4.513,0.134 -8.821,-2.121 -11.343,-6.058 l 0,0 c -2.527,-3.92 -2.909,-8.937 -1.028,-13.255 l 0,0 18.527,-42.388 c -1.799,-3.402 -3.586,-6.833 -5.308,-10.318 l 0,0 -44.064,-7.479 c -4.478,-0.754 -8.252,-3.877 -9.993,-8.248 l 0,0 c -1.728,-4.379 -1.167,-9.37 1.474,-13.211 l 0,0 26.065,-37.754 c -0.201,-0.666 -0.386,-1.339 -0.586,-2.008 l 0,0 -73.697,-78.285 c 0,0 -11.296,-8.851 5.147,-29.654 l 0,0 c 14.5,-18.35 88.952,-91.095 128.272,-129.204 l 0,0 c 16.606,-19.349 27.984,-31.329 29.172,-30.294 l 0,0 c 1.875,1.645 -7.973,36.847 -40.683,78.149 l 0,0 c -25.215,37.057 -57.94,94.05 -50.266,100.618 l 0,0 c 0,0 8.725,11.078 26.234,19.054 l 0,0 c 0,10e-4 -0.001,0.002 -0.002,0.002 l 0,0 c -0.163,0.127 -0.321,0.254 0.01,0.002 l 0,0 c 0,0 369.594,-170.491 712.429,-2.885 l 0,0 c 39.164,7.026 62.873,-13.954 62.873,-13.954 l 0,0 c 8.175,-4.74 -12.996,-63.345 -30.408,-102.137 l 0,0 C 960.64,132.56 957.168,98.188 959.176,96.996 l 0,0 c 1.267,-0.756 9.883,12.354 22.171,33.218 l 0,0 c 30.324,42.253 87.646,122.801 98.138,142.367 l 0,0 c 11.895,22.182 0,28.4 0,28.4 l 0,0 -79.342,58.446 c -0.745,2.6 -1.49,5.2 -2.26,7.78 l 0,0 26.061,37.754 c 2.661,3.841 3.196,8.832 1.469,13.211 l 0,0 c -1.731,4.358 -5.515,7.483 -9.99,8.248 l 0,0 -44.066,7.479 c -1.709,3.485 -3.498,6.916 -5.293,10.318 l 0,0 18.514,42.388 c 1.903,4.318 1.505,9.335 -1.021,13.255 l 0,0 c -2.518,3.937 -6.786,6.237 -11.338,6.058 l 0,0 -44.725,-1.625 c -2.315,3.015 -4.667,6.003 -7.067,8.936 l 0,0 10.278,45.432 c 1.042,4.613 -0.273,9.443 -3.486,12.795 l 0,0 c -3.195,3.338 -7.839,4.721 -12.253,3.639 l 0,0 -43.563,-10.71 c -2.82,2.493 -5.688,4.954 -8.587,7.365 l 0,0 1.567,46.642 c 0.168,4.721 -2.034,9.208 -5.813,11.828 l 0,0 c -3.777,2.636 -8.57,3.033 -12.7,1.074 l 0,0 -40.638,-19.321 c -3.274,1.878 -6.566,3.738 -9.892,5.538 l 0,0 -7.182,45.961 c -0.728,4.655 -3.723,8.611 -7.919,10.417 l 0,0 c -4.184,1.817 -8.975,1.229 -12.647,-1.536 l 0,0 -36.232,-27.184 c -3.57,1.185 -7.154,2.32 -10.779,3.406 l 0,0 -15.618,43.585 c -1.588,4.444 -5.25,7.706 -9.716,8.624 l 0,0 c -4.45,0.909 -9.028,-0.632 -12.113,-4.08 l 0,0 -30.499,-34.12 c -3.686,0.424 -7.377,0.811 -11.076,1.133 l 0,0 -23.549,39.675 c -2.385,4.019 -6.598,6.464 -11.14,6.464 l 0,0 c -4.528,0 -8.75,-2.445 -11.118,-6.464 M 239.417,295.583 c 0.163,-0.127 0.327,-0.252 0.008,0.004 l 0,0 c -0.002,-10e-4 -0.005,-0.003 -0.008,-0.004"
               style="fill:url(#linearGradient40);stroke:none"
               id="path50"
               inkscape:connector-curvature="0" /></g></g></g></g><g
       id="g52"><g
         id="g54"
         clip-path="url(#clipPath56)"><g
           id="g60"><g
             id="g62"><path
               d="m 1050.826,418.297 -9.898,-21.979 C 971.075,325.321 917.896,322.855 917.896,322.855 l 0,0 -6.97,-34.127 C 1013.19,277.59 1085.73,393.879 1085.73,393.879 l 0,0 c 154.622,91.652 80.503,189.377 80.503,189.377 l 0,0 c -14.899,-82.292 -65.715,-99.941 -65.715,-99.941 l 0,0 c -4.329,93.16 10.427,117.273 10.427,117.273 l 0,0 C 942.409,526.144 1050.826,418.297 1050.826,418.297"
               style="fill:url(#linearGradient64);stroke:none"
               id="path76"
               inkscape:connector-curvature="0" /></g></g></g></g><g
       id="g78"><g
         id="g80"
         clip-path="url(#clipPath82)"><g
           id="g86"
           transform="translate(676.9971,389.8311)"><path
             d="m 0,0 c 0,0 36.936,40.443 73.871,0 0,0 29.022,-53.927 0,-80.887 0,0 -47.487,-37.748 -73.871,0 0,0 -31.658,29.659 0,80.887"
             style="fill:#000000;fill-opacity:1;fill-rule:nonzero;stroke:none"
             id="path88"
             inkscape:connector-curvature="0" /></g><g
           id="g90"
           transform="translate(719.7607,374.8271)"><path
             d="m 0,0 c 0,-15.746 -9.282,-28.514 -20.732,-28.514 -11.448,0 -20.73,12.768 -20.73,28.514 0,15.75 9.282,28.518 20.73,28.518 C -9.282,28.518 0,15.75 0,0"
             style="fill:#ffffff;fill-opacity:1;fill-rule:nonzero;stroke:none"
             id="path92"
             inkscape:connector-curvature="0" /></g><g
           id="g94"
           transform="translate(512.1484,400.8735)"><path
             d="m 0,0 c 0,0 63.355,28.052 80.648,-34.562 0,0 18.114,-72.98 -52.03,-77.099 0,0 -89.444,17.228 -28.618,111.661"
             style="fill:#000000;fill-opacity:1;fill-rule:nonzero;stroke:none"
             id="path96"
             inkscape:connector-curvature="0" /></g><g
           id="g98"
           transform="translate(543.9678,373.7939)"><path
             d="m 0,0 c 0,-16.239 -9.572,-29.409 -21.381,-29.409 -11.804,0 -21.379,13.17 -21.379,29.409 0,16.244 9.575,29.411 21.379,29.411 C -9.572,29.411 0,16.244 0,0"
             style="fill:#ffffff;fill-opacity:1;fill-rule:nonzero;stroke:none"
             id="path100"
             inkscape:connector-curvature="0" /></g><g
           id="g102"
           transform="translate(593.3169,263.6973)"><path
             d="m 0,0 80.796,6.484 c 0,0 -2.738,-13.006 -13.279,-22.769 0,0 -27.79,-30.47 -59.673,2.533 0,0 -5.217,5.629 -7.844,13.752"
             style="fill:#000000;fill-opacity:1;fill-rule:nonzero;stroke:none"
             id="path104"
             inkscape:connector-curvature="0" /></g></g></g><g
       id="g106"><g
         id="g108"><g
           id="g114"><g
             id="g116"><path
               d="m 110.556,454.884 c 0,0 -47.809,31.949 -58.126,101.346 l 0,0 c 0,0 -116.424,-84.493 51.384,-165.473 l 0,0 c 0,0 15.22,-57.187 161.349,-102.816 l 0,0 0.107,0.435 c 1.471,-0.272 2.977,-0.435 4.526,-0.435 l 0,0 c 13.807,0 25.003,11.313 25.003,25.272 l 0,0 c 0,13.956 -11.196,25.268 -25.003,25.268 l 0,0 c -0.667,0 -1.322,-0.049 -1.973,-0.1 l 0,0 c -26.234,5.971 -99.973,25.185 -119.463,56.363 l 0,0 c 0,0 99.225,112.871 -55.862,185.019 l 0,0 18.058,-124.879 z"
               style="fill:url(#linearGradient118);stroke:none"
               id="path130"
               inkscape:connector-curvature="0" /></g></g></g></g></g></svg>