<?xml version="1.0" encoding="UTF-8" standalone="no"?>
<!-- Created with Inkscape (http://www.inkscape.org/) -->

<svg
   xmlns:dc="http://purl.org/dc/elements/1.1/"
   xmlns:cc="http://creativecommons.org/ns#"
   xmlns:rdf="http://www.w3.org/1999/02/22-rdf-syntax-ns#"
   xmlns:svg="http://www.w3.org/2000/svg"
   xmlns="http://www.w3.org/2000/svg"
   xmlns:sodipodi="http://sodipodi.sourceforge.net/DTD/sodipodi-0.dtd"
   xmlns:inkscape="http://www.inkscape.org/namespaces/inkscape"
   id="svg2"
   version="1.1"
   inkscape:version="0.91 r13725"
   xml:space="preserve"
   width="1500"
   height="1000"
   viewBox="0 0 1500 1000"
   sodipodi:docname="rustacean-orig-gesture.svg"><metadata
     id="metadata8"><rdf:RDF><cc:Work
         rdf:about=""><dc:format>image/svg+xml</dc:format><dc:type
           rdf:resource="http://purl.org/dc/dcmitype/StillImage" /><dc:title></dc:title></cc:Work></rdf:RDF></metadata><defs
     id="defs6"><clipPath
       clipPathUnits="userSpaceOnUse"
       id="clipPath16"><path
         d="M 0,800 1200,800 1200,0 0,0 0,800 Z"
         id="path18"
         inkscape:connector-curvature="0" /></clipPath><clipPath
       clipPathUnits="userSpaceOnUse"
       id="clipPath40"><path
         d="m 639.533,743.449 -26.214,-44.154 c -4.119,-0.358 -8.244,-0.788 -12.34,-1.259 l 0,0 -33.943,37.97 c -3.437,3.838 -8.552,5.552 -13.487,4.54 l 0,0 c -4.967,-1.035 -9.046,-4.652 -10.807,-9.597 l 0,0 -17.392,-48.504 c -4.028,-1.209 -8.018,-2.482 -11.997,-3.792 l 0,0 -40.309,30.254 c -4.098,3.088 -9.432,3.74 -14.098,1.71 l 0,0 c -4.65,-2.011 -7.997,-6.414 -8.803,-11.594 l 0,0 -7.996,-51.149 c -3.7,-2.003 -7.364,-4.062 -11.015,-6.163 l 0,0 -45.222,21.502 c -4.592,2.188 -9.952,1.738 -14.134,-1.196 l 0,0 c -4.202,-2.915 -6.657,-7.909 -6.466,-13.163 l 0,0 1.735,-51.906 c -3.218,-2.684 -6.403,-5.422 -9.558,-8.197 l 0,0 -48.47,11.92 c -4.925,1.194 -10.086,-0.335 -13.65,-4.051 l 0,0 c -3.585,-3.73 -5.039,-9.105 -3.885,-14.238 l 0,0 11.415,-50.56 c -2.649,-3.279 -5.27,-6.589 -7.839,-9.945 l 0,0 -49.77,1.808 c -5.023,0.148 -9.817,-2.36 -12.624,-6.743 l 0,0 c -2.811,-4.361 -3.237,-9.944 -1.145,-14.751 l 0,0 20.619,-47.172 c -2.004,-3.786 -3.993,-7.605 -5.907,-11.484 l 0,0 -49.039,-8.321 c -4.983,-0.841 -9.184,-4.317 -11.121,-9.179 l 0,0 c -1.925,-4.874 -1.3,-10.428 1.639,-14.703 l 0,0 29.01,-42.015 c -0.224,-0.742 -0.43,-1.491 -0.652,-2.234 l 0,0 -82.018,-87.122 c 0,0 -12.569,-9.85 5.731,-33.002 l 0,0 C 155.914,226.538 238.769,145.583 282.528,103.17 l 0,0 c 18.483,-21.531 31.144,-34.865 32.467,-33.712 l 0,0 c 2.088,1.832 -8.872,41.006 -45.277,86.97 l 0,0 c -28.059,41.239 -64.478,104.666 -55.937,111.977 l 0,0 c 0,0 9.71,12.328 29.195,21.203 l 0,0 c 0,10e-4 -0.001,10e-4 -0.002,0.002 l 0,0 c -0.181,0.142 -0.358,0.284 0.011,0.002 l 0,0 c 0,0 411.313,-189.736 792.845,-3.21 l 0,0 c 43.584,7.818 69.968,-15.529 69.968,-15.529 l 0,0 c 9.099,-5.276 -14.463,-70.495 -33.838,-113.666 l 0,0 c -26.353,-49.022 -30.217,-87.275 -27.982,-88.602 l 0,0 c 1.41,-0.841 10.998,13.748 24.674,36.966 l 0,0 c 33.745,47.024 97.539,136.665 109.214,158.438 l 0,0 c 13.239,24.688 0,31.606 0,31.606 l 0,0 -88.295,65.043 c -0.831,2.894 -1.661,5.787 -2.516,8.659 l 0,0 29.002,42.015 c 2.961,4.275 3.557,9.829 1.634,14.703 l 0,0 c -1.924,4.85 -6.135,8.327 -11.117,9.179 l 0,0 -49.043,8.321 c -1.899,3.879 -3.889,7.698 -5.888,11.484 l 0,0 20.603,47.172 c 2.119,4.807 1.673,10.39 -1.139,14.751 l 0,0 c -2.796,4.383 -7.55,6.943 -12.617,6.743 l 0,0 -49.769,-1.808 c -2.578,3.356 -5.195,6.679 -7.866,9.945 l 0,0 11.437,50.56 c 1.159,5.133 -0.301,10.508 -3.879,14.238 l 0,0 c -3.555,3.716 -8.722,5.254 -13.636,4.051 l 0,0 -48.478,-11.92 c -3.14,2.775 -6.33,5.513 -9.559,8.197 l 0,0 1.745,51.906 c 0.188,5.254 -2.262,10.248 -6.467,13.163 l 0,0 c -4.204,2.934 -9.541,3.376 -14.14,1.196 l 0,0 -45.224,-21.502 c -3.64,2.091 -7.302,4.16 -11.006,6.163 l 0,0 -7.991,51.149 c -0.812,5.18 -4.145,9.583 -8.815,11.594 l 0,0 c -4.654,2.021 -9.989,1.366 -14.076,-1.71 l 0,0 -40.322,-30.254 c -3.969,1.319 -7.958,2.583 -11.996,3.792 l 0,0 -17.38,48.504 c -1.766,4.945 -5.841,8.576 -10.81,9.597 l 0,0 c -4.953,1.012 -10.049,-0.702 -13.483,-4.54 l 0,0 -33.938,-37.97 c -4.104,0.471 -8.21,0.901 -12.327,1.259 l 0,0 -26.207,44.154 c -2.656,4.472 -7.345,7.193 -12.398,7.193 l 0,0 c -5.041,0 -9.739,-2.721 -12.372,-7.193 M 242.976,289.608 c 0.181,-0.141 0.363,-0.281 0.009,0.004 l 0,0 c -0.003,-0.001 -0.006,-0.003 -0.009,-0.004"
         id="path42"
         inkscape:connector-curvature="0" /></clipPath><linearGradient
       x1="0"
       y1="0"
       x2="1"
       y2="0"
       gradientUnits="userSpaceOnUse"
       gradientTransform="matrix(-62.204361,710.99792,710.99792,62.204361,677.77539,36.518555)"
       spreadMethod="pad"
       id="linearGradient48"><stop
         style="stop-opacity:1;stop-color:#f74c00"
         offset="0"
         id="stop50" /><stop
         style="stop-opacity:1;stop-color:#f74c00"
         offset="0.331284"
         id="stop52" /><stop
         style="stop-opacity:1;stop-color:#f74c00"
         offset="0.42403707"
         id="stop54" /><stop
         style="stop-opacity:1;stop-color:#f49600"
         offset="1"
         id="stop56" /></linearGradient><clipPath
       clipPathUnits="userSpaceOnUse"
       id="clipPath64"><path
         d="M 0,800 1200,800 1200,0 0,0 0,800 Z"
         id="path66"
         inkscape:connector-curvature="0" /></clipPath><clipPath
       clipPathUnits="userSpaceOnUse"
       id="clipPath92"><path
         d="m 1002.235,318.129 c 0,0 -14.724,-58.643 -106.292,-120.267 l 0,0 -25.678,-6.018 c 0,0 -83.067,151.481 -200.75,-19.221 l 0,0 c 0,0 36.677,21.354 135,-4.651 l 0,0 c 0,0 -45.23,-69.225 -136.342,-67.098 l 0,0 c 0,0 87.313,-104.749 220.18,46.554 l 0,0 c 0,0 140.456,54.315 151.845,170.701 l 0,0 -37.963,0 z"
         id="path94"
         inkscape:connector-curvature="0" /></clipPath><linearGradient
       x1="0"
       y1="0"
       x2="1"
       y2="0"
       gradientUnits="userSpaceOnUse"
       gradientTransform="matrix(-1.53e-5,252.57129,252.57129,1.53e-5,854.18555,65.557617)"
       spreadMethod="pad"
       id="linearGradient100"><stop
         style="stop-opacity:1;stop-color:#cc3a00"
         offset="0"
         id="stop102" /><stop
         style="stop-opacity:1;stop-color:#cc3a00"
         offset="0.147232"
         id="stop104" /><stop
         style="stop-opacity:1;stop-color:#f74c00"
         offset="0.41840305"
         id="stop106" /><stop
         style="stop-opacity:1;stop-color:#f74c00"
         offset="0.742325"
         id="stop108" /><stop
         style="stop-opacity:1;stop-color:#f74c00"
         offset="1"
         id="stop110" /></linearGradient><linearGradient
       x1="0"
       y1="0"
       x2="1"
       y2="0"
       gradientUnits="userSpaceOnUse"
       gradientTransform="matrix(-27.384155,-345.42599,-345.42599,27.384155,180.93311,641.71631)"
       spreadMethod="pad"
       id="linearGradient126"><stop
         style="stop-opacity:1;stop-color:#cc3a00"
         offset="0"
         id="stop128" /><stop
         style="stop-opacity:1;stop-color:#cc3a00"
         offset="0.147232"
         id="stop130" /><stop
         style="stop-opacity:1;stop-color:#f74c00"
         offset="0.41840305"
         id="stop132" /><stop
         style="stop-opacity:1;stop-color:#f74c00"
         offset="0.742325"
         id="stop134" /><stop
         style="stop-opacity:1;stop-color:#f74c00"
         offset="1"
         id="stop136" /></linearGradient></defs><sodipodi:namedview
     pagecolor="#ffffff"
     bordercolor="#666666"
     borderopacity="1"
     objecttolerance="10"
     gridtolerance="10"
     guidetolerance="10"
     inkscape:pageopacity="0"
     inkscape:pageshadow="2"
     inkscape:window-width="640"
     inkscape:window-height="480"
     id="namedview4"
     showgrid="false"
     inkscape:zoom="0.216"
     inkscape:cx="750"
     inkscape:cy="500"
     inkscape:window-x="0"
     inkscape:window-y="0"
     inkscape:window-maximized="0"
     inkscape:current-layer="g10" /><g
     id="g10"
     inkscape:groupmode="layer"
     inkscape:label="rustacean-orig-gesture"
     transform="matrix(1.25,0,0,-1.25,0,1000)"><g
       id="g12"><g
         id="g14"
         clip-path="url(#clipPath16)"><g
           id="g20"
           transform="translate(654.2871,454.2886)"><path
             d="m 0,0 c -114.597,0 -218.714,-13.779 -295.795,-36.229 l 0,-191.786 c 77.081,-22.453 181.198,-36.229 295.795,-36.229 131.157,0 248.579,18.046 327.452,46.492 l 0,171.257 C 248.579,-18.048 131.157,0 0,0"
             style="fill:#a52b00;fill-opacity:1;fill-rule:nonzero;stroke:none"
             id="path22"
             inkscape:connector-curvature="0" /></g><g
           id="g24"
           transform="translate(337.4038,132.5488)"><path
             d="m 0,0 c 0,0 29.63,-20.584 -22.409,-63.091 0,0 364.49,31.119 728.984,-0.852 0,0 -58.413,38.058 -41.183,63.068 0,0 -317.957,-20.127 -665.392,0.875"
             style="fill:#000000;fill-opacity:1;fill-rule:nonzero;stroke:none"
             id="path26"
             inkscape:connector-curvature="0" /></g><g
           id="g28"
           transform="translate(1099.8682,295.459)"><path
             d="m 0,0 -13.433,27.828 c 0.071,1.056 0.124,2.114 0.124,3.175 0,31.548 -32.805,60.62 -87.997,83.901 l 0,-167.801 c 25.751,10.863 46.645,22.983 61.586,36.036 -4.398,-17.683 -19.437,-53.455 -31.428,-78.611 -19.707,-35.981 -26.845,-67.303 -25.929,-68.853 0.584,-0.978 7.307,9.393 17.222,26.2 23.072,32.876 66.792,95.64 75.53,111.627 C 5.574,-8.375 0,0 0,0"
             style="fill:#a52b00;fill-opacity:1;fill-rule:nonzero;stroke:none"
             id="path30"
             inkscape:connector-curvature="0" /></g><g
           id="g32"
           transform="translate(230.5645,324.625)"><path
             d="m 0,0 c 0,-6.077 1.222,-12.063 3.581,-17.932 l -8.046,-14.32 c 0,0 -6.444,-8.359 4.904,-25.999 10.01,-15.555 60.149,-76.438 86.612,-108.32 11.368,-16.348 19.076,-26.413 19.75,-25.441 1.061,1.543 -7.068,32.23 -29.642,67.242 -10.534,18.805 -23.114,43.719 -30.665,62.121 21.082,-13.342 48.662,-25.446 81.434,-35.862 l 0,197.016 C 48.96,73.411 0,38.547 0,0"
             style="fill:#a52b00;fill-opacity:1;fill-rule:nonzero;stroke:none"
             id="path34"
             inkscape:connector-curvature="0" /></g></g></g><g
       id="g36"><g
         id="g38"
         clip-path="url(#clipPath40)"><g
           id="g44"><g
             id="g46"><path
               d="m 639.533,743.449 -26.214,-44.154 c -4.119,-0.358 -8.244,-0.788 -12.34,-1.259 l 0,0 -33.943,37.97 c -3.437,3.838 -8.552,5.552 -13.487,4.54 l 0,0 c -4.967,-1.035 -9.046,-4.652 -10.807,-9.597 l 0,0 -17.392,-48.504 c -4.028,-1.209 -8.018,-2.482 -11.997,-3.792 l 0,0 -40.309,30.254 c -4.098,3.088 -9.432,3.74 -14.098,1.71 l 0,0 c -4.65,-2.011 -7.997,-6.414 -8.803,-11.594 l 0,0 -7.996,-51.149 c -3.7,-2.003 -7.364,-4.062 -11.015,-6.163 l 0,0 -45.222,21.502 c -4.592,2.188 -9.952,1.738 -14.134,-1.196 l 0,0 c -4.202,-2.915 -6.657,-7.909 -6.466,-13.163 l 0,0 1.735,-51.906 c -3.218,-2.684 -6.403,-5.422 -9.558,-8.197 l 0,0 -48.47,11.92 c -4.925,1.194 -10.086,-0.335 -13.65,-4.051 l 0,0 c -3.585,-3.73 -5.039,-9.105 -3.885,-14.238 l 0,0 11.415,-50.56 c -2.649,-3.279 -5.27,-6.589 -7.839,-9.945 l 0,0 -49.77,1.808 c -5.023,0.148 -9.817,-2.36 -12.624,-6.743 l 0,0 c -2.811,-4.361 -3.237,-9.944 -1.145,-14.751 l 0,0 20.619,-47.172 c -2.004,-3.786 -3.993,-7.605 -5.907,-11.484 l 0,0 -49.039,-8.321 c -4.983,-0.841 -9.184,-4.317 -11.121,-9.179 l 0,0 c -1.925,-4.874 -1.3,-10.428 1.639,-14.703 l 0,0 29.01,-42.015 c -0.224,-0.742 -0.43,-1.491 -0.652,-2.234 l 0,0 -82.018,-87.122 c 0,0 -12.569,-9.85 5.731,-33.002 l 0,0 C 155.914,226.538 238.769,145.583 282.528,103.17 l 0,0 c 18.483,-21.531 31.144,-34.865 32.467,-33.712 l 0,0 c 2.088,1.832 -8.872,41.006 -45.277,86.97 l 0,0 c -28.059,41.239 -64.478,104.666 -55.937,111.977 l 0,0 c 0,0 9.71,12.328 29.195,21.203 l 0,0 c 0,10e-4 -0.001,10e-4 -0.002,0.002 l 0,0 c -0.181,0.142 -0.358,0.284 0.011,0.002 l 0,0 c 0,0 411.313,-189.736 792.845,-3.21 l 0,0 c 43.584,7.818 69.968,-15.529 69.968,-15.529 l 0,0 c 9.099,-5.276 -14.463,-70.495 -33.838,-113.666 l 0,0 c -26.353,-49.022 -30.217,-87.275 -27.982,-88.602 l 0,0 c 1.41,-0.841 10.998,13.748 24.674,36.966 l 0,0 c 33.745,47.024 97.539,136.665 109.214,158.438 l 0,0 c 13.239,24.688 0,31.606 0,31.606 l 0,0 -88.295,65.043 c -0.831,2.894 -1.661,5.787 -2.516,8.659 l 0,0 29.002,42.015 c 2.961,4.275 3.557,9.829 1.634,14.703 l 0,0 c -1.924,4.85 -6.135,8.327 -11.117,9.179 l 0,0 -49.043,8.321 c -1.899,3.879 -3.889,7.698 -5.888,11.484 l 0,0 20.603,47.172 c 2.119,4.807 1.673,10.39 -1.139,14.751 l 0,0 c -2.796,4.383 -7.55,6.943 -12.617,6.743 l 0,0 -49.769,-1.808 c -2.578,3.356 -5.195,6.679 -7.866,9.945 l 0,0 11.437,50.56 c 1.159,5.133 -0.301,10.508 -3.879,14.238 l 0,0 c -3.555,3.716 -8.722,5.254 -13.636,4.051 l 0,0 -48.478,-11.92 c -3.14,2.775 -6.33,5.513 -9.559,8.197 l 0,0 1.745,51.906 c 0.188,5.254 -2.262,10.248 -6.467,13.163 l 0,0 c -4.204,2.934 -9.541,3.376 -14.14,1.196 l 0,0 -45.224,-21.502 c -3.64,2.091 -7.302,4.16 -11.006,6.163 l 0,0 -7.991,51.149 c -0.812,5.18 -4.145,9.583 -8.815,11.594 l 0,0 c -4.654,2.021 -9.989,1.366 -14.076,-1.71 l 0,0 -40.322,-30.254 c -3.969,1.319 -7.958,2.583 -11.996,3.792 l 0,0 -17.38,48.504 c -1.766,4.945 -5.841,8.576 -10.81,9.597 l 0,0 c -4.953,1.012 -10.049,-0.702 -13.483,-4.54 l 0,0 -33.938,-37.97 c -4.104,0.471 -8.21,0.901 -12.327,1.259 l 0,0 -26.207,44.154 c -2.656,4.472 -7.345,7.193 -12.398,7.193 l 0,0 c -5.041,0 -9.739,-2.721 -12.372,-7.193 M 242.976,289.608 c 0.181,-0.141 0.363,-0.281 0.009,0.004 l 0,0 c -0.003,-0.001 -0.006,-0.003 -0.009,-0.004"
               style="fill:url(#linearGradient48);stroke:none"
               id="path58"
               inkscape:connector-curvature="0" /></g></g></g></g><g
       id="g60"><g
         id="g62"
         clip-path="url(#clipPath64)"><g
           id="g68"
           transform="translate(795.8564,175.4316)"><path
             d="M 0,0 C 1.575,1.342 2.4,2.139 2.4,2.139 L -134.564,14.613 C -24.662,159.599 65.618,42.664 74.988,29.752 L 74.988,0 0,0 Z"
             style="fill:#000000;fill-opacity:1;fill-rule:nonzero;stroke:none"
             id="path70"
             inkscape:connector-curvature="0" /></g><g
           id="g72"
           transform="translate(729.9482,394.4932)"><path
             d="m 0,0 c 0,0 41.104,45.009 82.21,0 0,0 32.297,-60.013 0,-90.016 0,0 -52.85,-42.009 -82.21,0 0,0 -35.232,33.006 0,90.016"
             style="fill:#000000;fill-opacity:1;fill-rule:nonzero;stroke:none"
             id="path74"
             inkscape:connector-curvature="0" /></g><g
           id="g76"
           transform="translate(777.5361,377.7959)"><path
             d="m 0,0 c 0,-17.523 -10.329,-31.73 -23.07,-31.73 -12.739,0 -23.069,14.207 -23.069,31.73 0,17.529 10.33,31.738 23.069,31.738 C -10.329,31.738 0,17.529 0,0"
             style="fill:#ffffff;fill-opacity:1;fill-rule:nonzero;stroke:none"
             id="path78"
             inkscape:connector-curvature="0" /></g><g
           id="g80"
           transform="translate(546.4902,406.7832)"><path
             d="m 0,0 c 0,0 70.508,31.219 89.753,-38.463 0,0 20.159,-81.218 -57.902,-85.802 0,0 -99.541,19.172 -31.851,124.265"
             style="fill:#000000;fill-opacity:1;fill-rule:nonzero;stroke:none"
             id="path82"
             inkscape:connector-curvature="0" /></g><g
           id="g84"
           transform="translate(581.9033,376.6465)"><path
             d="m 0,0 c 0,-18.072 -10.653,-32.729 -23.794,-32.729 -13.137,0 -23.792,14.657 -23.792,32.729 0,18.078 10.655,32.731 23.792,32.731 C -10.653,32.731 0,18.078 0,0"
             style="fill:#ffffff;fill-opacity:1;fill-rule:nonzero;stroke:none"
             id="path86"
             inkscape:connector-curvature="0" /></g></g></g><g
       id="g88"><g
         id="g90"
         clip-path="url(#clipPath92)"><g
           id="g96"><g
             id="g98"><path
               d="m 1002.235,318.129 c 0,0 -14.724,-58.643 -106.292,-120.267 l 0,0 -25.678,-6.018 c 0,0 -83.067,151.481 -200.75,-19.221 l 0,0 c 0,0 36.677,21.354 135,-4.651 l 0,0 c 0,0 -45.23,-69.225 -136.342,-67.098 l 0,0 c 0,0 87.313,-104.749 220.18,46.554 l 0,0 c 0,0 140.456,54.315 151.845,170.701 l 0,0 -37.963,0 z"
               style="fill:url(#linearGradient100);stroke:none"
               id="path112"
               inkscape:connector-curvature="0" /></g></g></g></g><g
       id="g114"><g
         id="g116"><g
           id="g122"><g
             id="g124"><path
               d="m 117.845,497.971 c 0,0 -53.591,42.303 -59.292,125.418 l 0,0 c 0,0 -145.739,-89.09 45.294,-200.695 l 0,0 c 0,0 12.65,-69.12 181.341,-136.839 l 0,0 0.167,0.502 c 1.716,-0.46 3.484,-0.792 5.317,-0.937 l 0,0 c 16.345,-1.295 30.658,11.042 31.968,27.568 l 0,0 c 1.31,16.52 -10.881,30.959 -27.226,32.254 l 0,0 c -0.788,0.063 -1.568,0.065 -2.344,0.067 l 0,0 c -30.493,9.529 -115.975,39.194 -136.12,77.925 l 0,0 c 0,0 128.046,124.295 -48.759,224.25 l 0,0 9.654,-149.513 z"
               style="fill:url(#linearGradient126);stroke:none"
               id="path138"
               inkscape:connector-curvature="0" /></g></g></g></g></g></svg>